<svg xmlns="http://www.w3.org/2000/svg" viewBox="0 0 300 120"><defs><linearGradient id="body" x2="0" y2="1"><stop stop-color="#637f95"/><stop offset="1" stop-color="#cedbd2"/></linearGradient></defs><g stroke="#142f3c" stroke-width="1.2" stroke-linejoin="round"><path d="M76 59 Q47 30 39 9 Q42 43 58 59 Q42 78 40 102 Q53 84 76 62Z" fill="#637f95"/><path d="M141 44 L158 17 Q169 30 181 44Z" fill="#637f95"/><path d="M65 56 Q125 27 205 43 Q245 40 260 48 Q270 47 282 55 Q271 65 240 69 Q180 80 115 69 Q90 64 65 62 Z" fill="url(#body)"/><path d="M152 61Q171 83 182 90L172 64Z" fill="#637f95"/><path d="M212 69l13 15l4-13" fill="#637f95"/><path d="M253 65q13 0 20-4" fill="none"/><g stroke="#36555d"><path d="M219 51q-3 7-1 13" fill="none"/><path d="M223 51q-3 7-1 13" fill="none"/><path d="M227 51q-3 7-1 13" fill="none"/><path d="M231 51q-3 7-1 13" fill="none"/><path d="M235 51q-3 7-1 13" fill="none"/></g><circle cx="264" cy="53" r="2.5" fill="#10242b"/><circle cx="264.7" cy="52.5" r=".7" fill="white"/></g></svg>